<?xml version="1.0" encoding="UTF-8"?>
<svg id="_Слой_2" data-name="Слой 2" xmlns="http://www.w3.org/2000/svg" viewBox="0 0 42.06 97.68">
  <defs>
    <style>
      .cls-1 {
        fill: #70fc99;
      }

      .cls-1, .cls-2, .cls-3, .cls-4, .cls-5, .cls-6, .cls-7, .cls-8, .cls-9, .cls-10, .cls-11, .cls-12, .cls-13, .cls-14, .cls-15, .cls-16, .cls-17 {
        stroke-width: 0px;
      }

      .cls-3 {
        fill: #03c2b7;
      }

      .cls-4 {
        fill: #85552b;
      }

      .cls-5 {
        fill: #30f3e7;
      }

      .cls-6 {
        fill: #4cf120;
      }

      .cls-7 {
        fill: #4fbb11;
      }

      .cls-8 {
        fill: #1cddb6;
      }

      .cls-9 {
        fill: #ce9a6b;
      }

      .cls-10 {
        fill: #4becd8;
      }

      .cls-11 {
        fill: #e5ae72;
      }

      .cls-12 {
        fill: #34a03c;
      }

      .cls-13 {
        fill: #fbfafa;
      }

      .cls-14 {
        fill: #a96217;
      }

      .cls-15 {
        fill: #c88342;
      }

      .cls-16 {
        fill: #00ac71;
      }

      .cls-17 {
        fill: #edfdfd;
      }
    </style>
  </defs>
  <g id="_Слой_1-2" data-name="Слой 1">
    <path class="cls-2" d="M15.7.34c3.47-.49,8.43-.47,11.86.14,2.39.43,4.77,1.8,6.1,3.93,1.49,2.38-.44,8.17-1.02,10.9,1.67.74,2.69,1.62,3.94,2.92.35,2.68.68,6.11-.36,8.65-.68,1.65-2.67,2.74-4.21,3.43,2.05,10.73.6,21.99,2.03,32.81,3.38,2.77,6.55,6.98,7.49,11.31,1.03,4.71.67,10.43-2.07,14.49-3.07,4.56-8.3,7.26-13.58,8.3-2.16.52-4.77.53-6.98.34-3.75-.32-7.35-2.05-10.68-3.71-1.27-.63-2.79-1.26-3.7-2.37-1.27-1.55-2.81-3.75-3.53-5.6-2.36-6.15-.32-14.08,3.61-19.13,1.35-1.74,3.69-2.37,4.02-4.76.51-3.72.05-8.03-.03-11.79-.14-6.61-.15-13.44.59-20.01-1.49-.88-3.76-2.11-4.34-3.85-.66-1.98-.61-7.07.47-8.86.82-1.35,1.91-1.64,3.35-2.03l-1.34-5.07c-.44-1.79-.96-4.36.11-6C9.29,1.53,12.64.98,15.7.34Z"/>
    <path class="cls-10" d="M17.67,92.42c1.89.08,3.63-.26,5.44-.8l-.07,1.52,2.57.31c-3.79.73-7.08.72-10.75-.51l-.08-.94,2.9.43Z"/>
    <path class="cls-10" d="M32.33,66.72c2.73,2.17,5.14,5.32,5.47,8.89l.02.26-.16-.16c-.52-.53-.92-1.06-1.31-1.69l.04.16c.16.75.03,1.34-.12,2.08l-.07.36-.04.21c-.36-2.03-.79-3.82-2.3-5.29l.22-.93.65.33c-.29-2.04-2.07-2.1-2.39-4.2Z"/>
    <path class="cls-11" d="M10.76,5.22c5.73-1.81,14.65-2.23,20.12.44-1.58.41-3.32,1.36-4.95,1.28-.89.58-2.47.3-3.55.35-1.64.08-4.26.82-5.9.28l-.65-.32c-.93-.31-1.98.09-3.04-.33l-.55-.33c-.76-.37-.99-.7-1.49-1.38Z"/>
    <path class="cls-5" d="M36.16,76.82l.04-.21.07-.36c.15-.74.28-1.33.12-2.08l-.04-.16c.39.63.79,1.16,1.31,1.69l.16.16c.97,3.24.72,7.11-.87,10.12-1.53,2.89-5.5,5.93-8.61,6.87-.88.26-1.83.53-2.74.61l-2.57-.31.07-1.52c2.41-.69,5.04-2.37,7.05-3.85,3.77-2.78,5.33-6.45,6-10.95Z"/>
    <path class="cls-9" d="M12.33,16.73c-.84-2.74-3.29-8.11-2.69-10.86l1.12-.66c.49.68.73,1.01,1.49,1.38l.55.33-.21.65c.4.3.65.38,1.14.49l.19.05c.55.13,1.05.13,1.61.12.99.66,2.29-.07,3.1.47,1.06.7,1.42.04,2.18,1.32l-.11.14c-1.18,1.67-.54,5.54-1.84,7.33-.12.16-1.1.47-1.3.54l-5.2-1.3Z"/>
    <path class="cls-5" d="M26.69,31.29c.53.03,1.11-.09,1.47.35,2.34,2.85,1.61,27.51,2.01,32.86l2.17,2.22c.32,2.1,2.1,2.17,2.39,4.2l-.65-.33-.22.93-.21.08c-1.34.11-2.77-.19-4.11-.37.03-.62.23-1.23.49-1.79l.15-.32-.81-1.43-.33-.17c-.22-.14-.88-.63-1.01-.84-.83-1.35-.31-18.43-.35-21.3-.06-4.56-.13-9.62-.99-14.1Z"/>
    <path class="cls-16" d="M29.36,67.7c1.85,1.13,3.09,2.07,4.29,3.91-1.34.11-2.77-.19-4.11-.37.03-.62.23-1.23.49-1.79l.15-.32-.81-1.43Z"/>
    <path class="cls-15" d="M30.88,5.66c.62,1.37,0,3.04-.35,4.42-.57,2.35-1.15,4.69-1.69,7.04-3.78.91-7.41,1.25-11.3.91.2-.07,1.19-.38,1.3-.54,1.3-1.8.66-5.67,1.84-7.33l.11-.14c-.76-1.28-1.12-.62-2.18-1.32-.82-.54-2.11.19-3.1-.47-.56.02-1.06,0-1.61-.12l-.19-.05c-.49-.11-.74-.19-1.14-.49l.21-.65c1.06.42,2.11.02,3.04.33l.65.32c1.64.54,4.26-.2,5.9-.28,1.08-.05,2.66.22,3.55-.35,1.63.08,3.36-.87,4.95-1.28Z"/>
    <path class="cls-11" d="M8.9,26.68c-.19-.27-.34-.51-.48-.81-.74-1.53-.77-4.22-.18-5.8.15-.39.38-.38.75-.55,5.44,1.88,12.16,2.42,17.81,1.4,1.71-.31,3.71-1.29,5.39-1.38.62-.03,1.58.86,2.07,1.23.2,1.9-.13,3.56-.53,5.41-4.39,1.83-9.35,2.1-14.06,2.14l-8.94-1.03-1.84-.62Z"/>
    <path class="cls-15" d="M8.9,26.68c1.16-1.16,1.21-2.72,2.58-3.8,1.03-.24,1.7,0,2.67.32-.36,1.28-.78,2.59-.94,3.91-.78.29-1.65.19-2.46.18l-1.84-.62Z"/>
    <path class="cls-14" d="M14.15,23.2c2.3.42,4.48.53,6.82.55-.19,1.66-.87,2.99-1.29,4.57l-8.94-1.03c.82,0,1.69.1,2.46-.18.16-1.33.58-2.63.94-3.91Z"/>
    <path class="cls-4" d="M34.27,20.78c.2,1.9-.13,3.56-.53,5.41-4.39,1.83-9.35,2.1-14.06,2.14.41-1.58,1.1-2.91,1.29-4.57,2.44-.55,4.84-1.35,7.24-2.07,1.02-.31,2.54-.83,3.61-.62.8.16,1.19.94,1.94,1.2l.52-1.48Z"/>
    <path class="cls-7" d="M29.54,71.24c1.33.18,2.76.48,4.11.37l.21-.08c1.52,1.48,1.94,3.27,2.3,5.29-.68,4.51-2.23,8.17-6,10.95-2.01,1.48-4.64,3.16-7.05,3.85-1.8.54-3.54.88-5.44.8.76-.52,1.43-1.24,2.07-1.91,3.38-3.49,3.14-6.4,3.06-10.94l-.34-7.67c.97-.46,2.01-.34,3.05-.32l.53.18c1.06-.54,2.33-.47,3.49-.52Z"/>
    <path class="cls-3" d="M26.95,79.71c1.27-.03,2.46-.2,3.55.57.52,1.16.36,2.13.22,3.35-1.23.02-2.67.18-3.67-.64-.45-1.03-.2-2.2-.09-3.28Z"/>
    <path class="cls-6" d="M22.46,71.91c.97-.46,2.01-.34,3.05-.32l.53.18c.59,1.08,1.43,2.33,1.59,3.56-.75,2.02-2.74,3.29-4.64,4.17l-.19.09-.34-7.67Z"/>
    <path class="cls-12" d="M15.31,31.52c3.17.46,8.33.74,11.38-.23.86,4.48.93,9.53.99,14.1.04,2.87-.48,19.95.35,21.3.13.21.79.7,1.01.84l.33.17.81,1.43-.15.32c-.25.56-.46,1.17-.49,1.79-1.16.05-2.44-.02-3.49.52l-.53-.18c.24-.36.19-.41.21-.82l-4.19-3.52-.35-.16c-1.22-1.64-.7-5.62-.66-7.6l-.46-2.36c-.17-1-.29-1.96-.74-2.88-1.14-.66-1.85-.71-3.15-.61l-.93.88-.15-3.7c1.27.29,3.43.91,4.65.48l.45-1.07.23-12.08-5.13-2.64.02-3.99Z"/>
    <path class="cls-8" d="M20.42,38.15l3.25.36c.25,5.92.18,11.73.13,17.65-.03,3.26.21,6.83-.35,10.04l-1.26.52-.66.52-.35-.16c-1.22-1.64-.7-5.62-.66-7.6l-.46-2.36c-.17-1-.29-1.96-.74-2.88-1.14-.66-1.85-.71-3.15-.61l-.93.88-.15-3.7c1.27.29,3.43.91,4.65.48l.45-1.07.23-12.08Z"/>
    <path class="cls-13" d="M12.38,64.63c.48-8.52-.29-17.15-.08-25.71.05-2.01-.31-5.62.82-7.29l2.18-.1-.02,3.99,5.13,2.64-.23,12.08-.45,1.07c-1.22.43-3.38-.19-4.65-.48l.15,3.7.93-.88c1.3-.1,2.01-.05,3.15.61.46.92.58,1.88.74,2.88l.46,2.36c-.04,1.98-.57,5.96.66,7.6l.35.16,4.19,3.52c-.01.41.03.46-.21.82-1.05-.01-2.09-.13-3.05.32l.34,7.67c.08,4.54.32,7.45-3.06,10.94-.64.66-1.31,1.39-2.07,1.91l-2.9-.43.08.94c-3.14-1.11-6.27-2.67-8.58-5.13-2.33-2.48-2.42-5.34-2.3-8.56.07-1.98.24-4.28,1.02-6.11,1.42-3.38,4.75-6.06,7.38-8.52Z"/>
    <path class="cls-10" d="M15.29,35.51l5.13,2.64-.23,12.08-.35-3.73c-1.66-1.03-3.12-.82-4.95-.42l.39-10.57Z"/>
    <path class="cls-10" d="M16.17,53.63c1.3-.1,2.01-.05,3.15.61.46.92.58,1.88.74,2.88l.46,2.36c-.04,1.98-.57,5.96.66,7.6l.35.16,4.19,3.52c-.01.41.03.46-.21.82-1.05-.01-2.09-.13-3.05.32-.78.09-1.63-.03-2.42-.07-.93.47-2.08.9-2.83,1.61l-.74-.92c-1.34-1.55-3.07-1.37-4.98-1.51,1.42-1.38,2.58-2.66,3.67-4.34l.17-11.55-.1-.61.93-.88Z"/>
    <path class="cls-17" d="M16.17,53.63c1.3-.1,2.01-.05,3.15.61.46.92.58,1.88.74,2.88-1.11.14-1.88.26-2.93-.2-.89-1.09-.8-1.91-.97-3.29Z"/>
    <path class="cls-6" d="M20.05,71.83c.79.05,1.63.17,2.42.07l.34,7.67c.08,4.54.32,7.45-3.06,10.94-.64.66-1.31,1.39-2.07,1.91l-2.9-.43c-1.46-.65-3.14-1.54-4.39-2.55-2.9-2.35-2.71-6.89-3.04-10.29l.09.03c2.58,1.04,4.72.9,7.46.81l.45-.45c1.42-1.92,2.14-3.74,1.87-6.11.75-.72,1.9-1.14,2.83-1.61Z"/>
    <path class="cls-1" d="M20.05,71.83c.79.05,1.63.17,2.42.07l.34,7.67c-2.58.34-5.31.55-7.9.42l.45-.45c1.42-1.92,2.14-3.74,1.87-6.11.75-.72,1.9-1.14,2.83-1.61Z"/>
  </g>
</svg>