<?xml version="1.0" encoding="UTF-8"?>
<svg id="_Слой_2" data-name="Слой 2" xmlns="http://www.w3.org/2000/svg" viewBox="0 0 139.75 81.51">
  <defs>
    <style>
      .cls-1 {
        fill: #663e1c;
      }

      .cls-1, .cls-2, .cls-3, .cls-4, .cls-5, .cls-6, .cls-7, .cls-8, .cls-9, .cls-10, .cls-11, .cls-12, .cls-13, .cls-14 {
        stroke-width: 0px;
      }

      .cls-2 {
        fill: #f2dfcc;
      }

      .cls-3 {
        fill: #dabe91;
      }

      .cls-4 {
        fill: #bc7c20;
      }

      .cls-5 {
        fill: #fde1bc;
      }

      .cls-6 {
        fill: #916944;
      }

      .cls-7 {
        fill: #583b1f;
      }

      .cls-8 {
        fill: #33221a;
      }

      .cls-9 {
        fill: #1b1c21;
      }

      .cls-10 {
        fill: #fdf4d9;
      }

      .cls-11 {
        fill: #f1c0a2;
      }

      .cls-12 {
        fill: #e5ae72;
      }

      .cls-13 {
        fill: #a96217;
      }

      .cls-14 {
        fill: #c88342;
      }
    </style>
  </defs>
  <g id="_Слой_1-2" data-name="Слой 1">
    <path class="cls-9" d="M59.03,79.27c3.85,1.27,8.8-.15,12.9.45.56.08.93-.05,1.44-.27l-.79.91c-2.9.85-5.93,1.46-8.96.98-1.78-.28-3.52-.59-4.59-2.08Z"/>
    <path class="cls-9" d="M6.87,77.13c-1.62-.14-2.84-1.69-3.82-2.85-1.17-1.39-3.2-3.29-3.04-5.24.32-3.89,16.83-37.4,19.5-39.33,1.89-1.37,5.29-.54,6.76-2.5.04-.85.02-1.2-.58-1.88-.67-.76-1.89-.97-2.76-1.43-1.44-.76-5.27-3.69-5.32-5.4-.03-1.11.69-2.13,1.21-3.07,1.78-3.23,3.38-5.5,6.06-8.06C27.43,4.9,33.9-.17,37.53,0c1.3.06,3.23,1.18,4.09,2.17,3.48,4.03,5.12,10.91,5.56,16.12,1.48,1.02,5.1.33,6.99.33,5.7-.02,11.53.78,17.02,2.29,1.36.37,2.79.71,4.07,1.31,1.31.62,4.36,3.03,5.53,2.95l.36-.08c.86-.23,1.6-1.1,2.34-1.59,1.18-.77,2.61-1.38,3.95-1.82,9.19-3.01,19.61-3.1,29.02-1.22,2.85.57,5.84,1.21,8.45,2.53,2.74,1.39,5.21,3.07,7.47,5.16.78.73,1.55,1.85,2.42,2.42,1.25.83,3.42,1.7,4.95,1.67-.29,6.76-2.68,13.64-3.82,20.33-.86,5.03-1.34,10.13-2.17,15.18-.31,1.87-.47,3.92-1.04,5.73-.54,1.71-1.78,3.29-3.08,4.49-1.15,1.07-2.46,1.67-4.06,1.59-4.91-.24-10.2-1.73-15.02-2.7-2.86-.57-5.78-.69-8.65-1.14-3.1-.49-6.17-1.27-9.29-1.58-2.05-.21-4.15-.37-6.21-.35-1.95.02-6.01.91-7.56.23-.98,2.35-2.35,3.83-4.35,5.38-.44.1-.71.16-1.15.04-.51.22-.88.35-1.44.27-4.09-.6-9.04.82-12.9-.45-1.87-.37-4.01-3.06-5.03-4.65l-.46-.87c-1.8.66-4.17.25-6.09.23-10.66-.12-21.91,1.24-32.41,3.05-2.03.35-5.59,1.3-7.54.47l-.62-.37Z"/>
    <path class="cls-10" d="M61.28,68.75c-.07.58-.12,1.12-.1,1.7l.17.21c-.12.6-.19,1.37-.63,1.82l-.7-.11c-.44-.02-.67-.21-1.03-.44l-.31-1.61c.74-.72,1.69-1.11,2.6-1.56Z"/>
    <path class="cls-2" d="M71.11,68.58l2.9,1.55c-.26,1.79-.89,2.62-2.34,3.71-.28.21-.48.27-.85.29l-.68-.17-1.23.25c.29-.52,1.07-.92,1.26-1.32.16-.33.18-1.2.25-1.59.73-.38.82-.46,1.23-1.17l-.7-.78.17-.77Z"/>
    <path class="cls-2" d="M27.48,35.85c-.81.05-.83-.04-1.47-.48l.02-.6c.21-1.07,2.61-5.06,3.54-5.68l2.39.64v.29c-.58,2.6-3.36,3.26-3.3,6.14l-1.18-.32Z"/>
    <path class="cls-11" d="M61.35,70.65c.95,1.08,2,1.31,3.4,1.43,1.86.15,4.01.2,5.65-.77-.06.39-.09,1.26-.25,1.59-.19.4-.96.8-1.26,1.32l1.23-.25-.7.62c-2.09.45-4.12.37-6.21-.12-1.56-.36-2.38-.76-3.2-2.1l.7.11c.44-.45.5-1.21.63-1.82Z"/>
    <path class="cls-4" d="M14.49,46.67c1.71-3.46,3.67-6.78,5.48-10.18.81-1.52,1.22-3.26,2.44-4.51l.45.22-1.53,4.01.14.34c.69,1.64,1.97,2.61,2.73,4.11-.6.8-1.87,1.35-2.84,1.48-1.72.24-2.2,0-3.41,1.5-.71.88-1.32,2.79-2.22,3.32l-1.23-.28Z"/>
    <path class="cls-6" d="M74.01,70.14c.74,1.55,1.16,2.33.52,4.07-.36.96-1.02,1.59-1.99,1.92-3.04,1.07-9.56,1.47-12.56-.15-1.06-.58-1.6-1.32-1.89-2.46-.24-.93.3-2.3.59-3.22l.31,1.61c.36.23.6.42,1.03.44.82,1.34,1.64,1.74,3.2,2.1,2.09.49,4.12.57,6.21.12l.7-.62.68.17c.36-.01.56-.07.85-.29,1.45-1.09,2.08-1.92,2.34-3.71Z"/>
    <path class="cls-14" d="M14.49,46.67l1.23.28c-.99,3.43-2.9,6.39-4.58,9.5-1.15,2.12-2.14,4.34-3.21,6.5-.68,1.38-1.76,2.87-1.91,4.41.38.61.55,1.09,1.23,1.38.63,1.71,1.51,3.19,2.24,4.83-.6.51-.67.56-1.45.63-1.7-1.54-3.56-3.58-4.65-5.59.85-1.1,1.33-2.5,1.98-3.73,1.65-3.14,3.19-6.24,4.74-9.43,1.42-2.94,3.15-5.76,4.37-8.79Z"/>
    <path class="cls-12" d="M37.08,2.75c1.18,1.83,2.92,3.03,4.11,5.04l-.59,1c-1.27-1.29-2.48-2.54-4.42-2.51-2.78.04-7.19,3.85-8.96,5.84l-4.82,7.02-.85-.11-.58-.37c.06-1.76,1.12-3.1,2.14-4.5,2.53-3.45,5.29-6.22,8.93-8.52,1.57-1,3.85-1.45,5.03-2.89Z"/>
    <path class="cls-4" d="M125.24,72.53l.41.32c1.69-.49,2.49-2.27,4.08-3.13.11,1.71-.19,3-1.37,4.3-.6.66-1.66,1.75-2.59,1.84h-.19c-.62.14-1.24.23-1.88.14-4.23-.57-8.49-1.79-12.7-2.55-2.88-.52-5.77-.98-8.67-1.35-1.44-.18-3.94-.15-5.17-.88l-.36-.25c1.9.26,4.04-.25,5.97-.33,2.62-.11,5.28,0,7.9.17,2.61.16,5.24.55,7.81,1.05,2.16.43,4.57,1.16,6.77.67Z"/>
    <path class="cls-3" d="M126.81,32.6c1.29.46,2.28.18,3.48-.38l-4.98,21.65c-1.27.45-2.95.15-4.19-.35-.36-.14-.62-.43-.85-.72.11-.01.78-.06.82-.1.25-.24.53-2.49.62-3,.39-2.06,2.71-15,3.62-15.8l1.48-1.3Z"/>
    <path class="cls-7" d="M128.02,63.31l-.37-.42c-.84-1.73-1.71-2.28-2.86-3.68,1.19-.27,3.29.14,4.02-.98.8-1.22.91-3.89,1.15-5.39.46-2.86,2.31-16.79,4.19-18.34.81.08,1.01-.04,1.55.61-1,6.44-2.47,12.77-3.55,19.19-.56,3.32-1.07,6.65-1.49,9.99-.19,1.55-.15,4.08-.93,5.41-1.6.86-2.39,2.64-4.08,3.13l-.41-.32-.39-1.23c.52-.02.61-.09,1-.42,2.07-1.74,1.97-5.08,2.17-7.56Z"/>
    <path class="cls-10" d="M46.93,24.03l.23-1.19c.91-.58,2.88-.34,3.99-.34,5.04,0,10.17.17,15.12,1.24,2.29.5,4.51,1.27,6.68,2.15,1.31.53,3.29,1.78,4.63,1.84l-.45,1.02c-1.26.39-3.12,1.24-4.42.98-1.07.19-2.08-.48-3.06-.84-1.49-.54-3.03-.98-4.58-1.29-3.38-.69-6.98-1.04-10.42-1.27-2.05-.14-5.64.17-7.48-.65l-.24-1.65Z"/>
    <path class="cls-1" d="M75.83,67.14c1.8.76,3.5.32,5.37.14,2.19-.21,4.35-.33,6.55-.36,8.15-.11,16.47.31,24.52,1.72,2.44.43,10.69,3.37,12.58,2.65l.39,1.23c-2.21.49-4.61-.24-6.77-.67-2.57-.51-5.2-.89-7.81-1.05-2.62-.17-5.27-.28-7.9-.17-1.93.08-4.08.6-5.97.33-.37.27-.78.51-1.25.54-2.22.16-4.89-.41-7.14-.55-3.04-.19-6.74.05-9.69-.53l-.83-.2c-.97-.59-1.66-2.05-2.05-3.09Z"/>
    <path class="cls-1" d="M7.26,68.74c1.77.91,5.04-.3,6.95-.68,1.65-.33,3.29-.47,4.96-.62,7.39-.64,14.82-1.08,22.24-.76,3.17.14,6.35.38,9.51.68,1.37.13,3.63.74,4.93.32.32-.1.63-.29.91-.47-.68,1.07-1.25,2.03-2.32,2.77l-.38.06c-1.7.52-3.49.39-5.25.41-3.06.03-6.14-.01-9.2.13-6.46.29-12.86.84-19.26,1.78-2.22.33-8.88,2.18-10.68,1.3l-.17-.1c-.73-1.65-1.62-3.12-2.24-4.83Z"/>
    <path class="cls-10" d="M82.85,29.06c9.04-5.74,20.72-7.32,31.13-4.99,5.1,1.14,13.13,3.49,16.28,7.92l.03.23c-1.21.57-2.19.85-3.48.38l-.81.28c-.67.13-2.09-.85-2.77-1.16-3.42-1.54-7.08-2.84-10.84-3.19-5.43-.51-11.73.16-17.03,1.35-2.32.52-4.71,1.44-7.08,1.62-.82.06-1.47-.17-2.18-.56l-2.88-.67-.38-1.21Z"/>
    <path class="cls-13" d="M21.55,19.04l.85.11,4.82-7.02c1.77-1.99,6.18-5.8,8.96-5.84,1.94-.03,3.15,1.22,4.42,2.51l.59-1c1.85,4.82,2.45,10.86,1.56,15.96-1.37,1.54-4.01,1.92-5.98,2.04-1.99.11-4.04.11-5.97-.45l-.63-.65c.16-3.05,1.87-5.72,2.41-8.75-1.41,2.26-3.86,4.31-6.22,5.52l-.86-.04c-1.21,0-2.31-.46-3.19-1.31-.32-.3-.56-.7-.76-1.09Z"/>
    <path class="cls-8" d="M37.35,16.28c.26.14.59.3.8.51.63.64.38,1.56.34,2.37l-.76.06-.68.06-.63-.72c-.06-1.31.11-1.35.93-2.27Z"/>
    <path class="cls-8" d="M33.64,9.64c.45.12.82.24,1.17.55.68.61.63.76.7,1.64l-.71.4-.84.49-.81-.54c-.19-1.22-.03-1.46.49-2.53Z"/>
    <path class="cls-3" d="M82.85,29.06l.38,1.21,2.88.67c-1.36,3.19-3.33,6.15-4.57,9.39-1.08,2.79-4,14.92-5.27,16.1,5.23,3.55,14.35,2.38,20.48,2.35,3.5-.02,7.02.12,10.51.34,1.83.11,4.11.06,5.83.66,1.94.67,3.67,1.99,5.2,3.32.95.83,2.34,2.17,2.62,3.44-1.21.39-3.93-1-5.31-1.3-2.83-.6-5.73-1.09-8.61-1.39-7.79-.83-16.03-1.14-23.87-.52-2.65.21-5.28.55-7.9,1-1.83.31-4.62,1.27-6.4.8.7-1.05.96-3.21,1.37-4.46,1.9-5.75,3.73-11.61,5.76-17.31,1.74-4.9,4.34-9.78,6.91-14.29Z"/>
    <path class="cls-3" d="M77.58,27.72l1.11,1.21c-.61,1.47-1.6,2.77-2.31,4.2-1.99,4.05-3.92,8.22-5.45,12.46-.85,2.34-1.29,4.73-1.95,7.11-.71,2.54-1.55,5.03-2.22,7.58-.31,1.18-.78,4.41-1.53,5.19-1.51.49-3.93-.22-5.51-.46-3.06-.48-6.11-.87-9.2-1.15-8.06-.72-16.11-.76-24.18-.23-2.99.2-11.58,1.9-13.57.92l.05-.17c2.64-6.41,30.18-6.51,36.74-6.27,1.99.07,3.99.18,5.97.43,1.75.22,3.58.76,5.29.16.71-.97,1.01-3.44,1.32-4.65.89-3.52,1.81-7.01,2.98-10.45,1.27-3.73,3.37-7.95,5.48-11.29.59-.93,1.48-1.46,2.03-2.42l.1-.17c1.29.26,3.15-.59,4.42-.98l.45-1.02Z"/>
    <path class="cls-5" d="M86.1,30.94c.71.39,1.36.62,2.18.56,2.38-.18,4.76-1.1,7.08-1.62,5.3-1.18,11.61-1.85,17.03-1.35,3.76.35,7.41,1.65,10.84,3.19.68.3,2.09,1.29,2.77,1.16l.81-.28-1.48,1.3c-.91.8-3.23,13.74-3.62,15.8-.1.51-.37,2.76-.62,3-.04.04-.71.08-.82.1-1.15.6-3.64.46-4.87-.01l-.57-.32c.22,1.28.33,2.88.8,4.07.77,1.48,2.29,2.26,3.47,3.4,1.59,1.53,3.04,3.63,4.81,4.91-.28,1-.46,2.49-1.16,3.26-.94-.39-1.33-.69-1.85-1.57-.28-1.27-1.68-2.61-2.62-3.44-1.53-1.34-3.26-2.65-5.2-3.32-1.72-.6-4-.54-5.83-.66-3.49-.22-7.01-.36-10.51-.34-6.12.03-15.25,1.19-20.48-2.35,1.27-1.17,4.19-13.3,5.27-16.1,1.25-3.23,3.21-6.2,4.57-9.39Z"/>
    <path class="cls-5" d="M45.75,26.47l.25-.07c.76-.39.77-1.61.93-2.38l.24,1.65c1.84.82,5.43.52,7.48.65,3.44.23,7.04.58,10.42,1.27,1.55.32,3.09.75,4.58,1.29.98.36,2,1.04,3.06.84l-.1.17c-.55.96-1.44,1.5-2.03,2.42-2.11,3.34-4.21,7.56-5.48,11.29-1.17,3.44-2.09,6.93-2.98,10.45-.3,1.21-.61,3.68-1.32,4.65-1.71.6-3.54.07-5.29-.16-1.98-.25-3.98-.36-5.97-.43-6.57-.24-34.1-.14-36.74,6.27l-.05.17c-.58.49-.68.57-1.43.68.05-1.23,1.6-3.07,2.21-4.19,1.15-2.1,2.11-4.3,3.26-6.4,1.63-2.97,3.53-6.02,4.6-9.24,2.05.67,6.74-1.07,8.65-1.96.77-.36,1.38-.6,1.62-1.49,1.21-4.43-2.56-3.55-4.1-5.93l-.1-.18,1.18.32c-.06-2.88,2.72-3.54,3.3-6.14v-.29s1.53.21,1.53.21c3.78.25,9.34-.97,12.26-3.48Z"/>
    <path class="cls-3" d="M45.75,26.47c-.28,1.69-.4,2.11-1.84,3.16-2.77,2.04-7.63,2.35-10.93,1.77l-.95-.2c0-.38.04-.82-.07-1.18v-.29s1.53.21,1.53.21c3.78.25,9.34-.97,12.26-3.48Z"/>
  </g>
</svg>