<?xml version="1.0" encoding="UTF-8"?>
<svg id="_Слой_2" data-name="Слой 2" xmlns="http://www.w3.org/2000/svg" xmlns:xlink="http://www.w3.org/1999/xlink" viewBox="0 0 51.11 41.84">
  <defs>
    <style>
      .cls-1 {
        fill: #574862;
      }

      .cls-1, .cls-2, .cls-3, .cls-4, .cls-5 {
        stroke-width: 0px;
      }

      .cls-2 {
        fill: url(#_Безымянный_градиент_9);
      }

      .cls-3 {
        fill: #3a2344;
      }

      .cls-4 {
        fill: #33173e;
      }

      .cls-5 {
        fill: #4b3553;
      }
    </style>
    <linearGradient id="_Безымянный_градиент_9" data-name="Безымянный градиент 9" x1="22.36" y1="-238.67" x2="24.7" y2="-201.63" gradientTransform="translate(0 -199.94) scale(1 -1)" gradientUnits="userSpaceOnUse">
      <stop offset="0" stop-color="#453753"/>
      <stop offset="1" stop-color="#605a70"/>
    </linearGradient>
  </defs>
  <g id="_Слой_1-2" data-name="Слой 1">
    <path class="cls-3" d="M8.26,17.35c2.71,1.8,5.4,4.1,7.84,6.25.82.73,1.45,1.62,2.23,2.38,1.43,1.4,3,2.63,4.42,4.07.87.89,2.6,3.13,3.85,3.37.34.56.85,1.22.98,1.86-1.16-.32-2.18-.55-3.29.05-1.07.57-1.75,1.79-2.99,1.91-.55,1.51-3.01,3.21-4.45,3.9-.41.2-1.41-.02-1.84-.19-.58-.22-.88-.57-1.2-1.09l-.77.07c-2.51-1.58-4.34-3.76-6.25-5.99-.9-3.85,5.33-6.65,6.77-10l.14-.32c-.87-.35-1.37-1.43-1.96-2.13-1.18-1.4-2.72-2.43-3.47-4.15Z"/>
    <path class="cls-5" d="M13.81,39.87c.74-.84,1.11-.57,2.16-.68,2.14-.23,4.12-2,5.39-3.64l.64-.86.81-1.14c.46-.45.86-.47,1.46-.46l.16.46-3.15,3.69c-.55,1.51-3.01,3.21-4.45,3.9-.41.2-1.41-.02-1.84-.19-.58-.22-.88-.57-1.2-1.09Z"/>
    <path class="cls-1" d="M28.55,9.89l.15-.1c1.34-.97,2.45-2.43,3.57-3.64,1.5-1.62,3.1-3.64,4.99-4.8,2.68-1.64,6.71-1.49,9.73-1.06.8.11,1.51.36,2.24.7,1.62,2.43,2.21,7.7,1.71,10.58-.16.9-.62,1.65-1.39,2.15l-.49.07c-1.01,2.51-6.5,4.67-8.67,6.65-1.13,1.04-2,3.03-3.25,3.79.6,1.43,1.47,2.96,2.81,3.82-1.32.19-2.64-.66-3.64-1.44-3.76-2.93-6.98-6.64-10.16-10.17-1.26-1.4-3.02-3.02-3.96-4.65-.37-.64-.48-1.46-.57-2.19,1,1.17,2.1,2.37,3.68,2.54,1.16-.09,2.12-.92,2.87-1.76l.37-.49Z"/>
    <path class="cls-4" d="M21.63,9.61c1,1.17,2.1,2.37,3.68,2.54,1.16-.09,2.12-.92,2.87-1.76l.37-.49c-.21,1.27-.89,2.41-1.91,3.27l-.1.05c1.24,2.1,3.07,3.77,4.79,5.48.99.98,1.95,1.57,2.45,2.92h.57s.22-.22.22-.22c3.74-3.75,8.59-7.2,13.51-9.2l.38.19c-1.01,1.05-2.41,1.7-3.63,2.47-2.44,1.54-5.02,3.24-7,5.35l.49.32c.4-.1.56-.08.87-.38,1.45-1.45,3.22-2.36,4.95-3.43,1.65-1.02,3.15-2.15,4.96-2.93-1.01,2.51-6.5,4.67-8.67,6.65-1.13,1.04-2,3.03-3.25,3.79.6,1.43,1.47,2.96,2.81,3.82-1.32.19-2.64-.66-3.64-1.44-3.76-2.93-6.98-6.64-10.16-10.17-1.26-1.4-3.02-3.02-3.96-4.65-.37-.64-.48-1.46-.57-2.19Z"/>
    <path class="cls-2" d="M3.33.19c1.04.49,2.29-.02,3.42-.04,1.99-.04,5.31.79,7.04.25.45.9,1.26,1.66,1.86,2.48,1.58,2.15,3.67,5.37,5.98,6.73.09.73.21,1.55.57,2.19.93,1.63,2.69,3.25,3.96,4.65,3.18,3.53,6.39,7.24,10.16,10.17,1,.78,2.32,1.63,3.64,1.44,1.95,2.56,6.08,5.82,6.74,8.91-.14.97-.1,1.61-.91,2.29-2.28,1.9-6.29,2.28-9.12,2.58l-.89-.42c-2.18.06-5.68-3.4-7.2-4.86-.39-.38-.74-.78-.99-1.27-.13-.64-.64-1.3-.98-1.86-1.25-.24-2.98-2.48-3.85-3.37-1.41-1.45-2.98-2.67-4.42-4.07-.78-.76-1.41-1.66-2.23-2.38-2.44-2.15-5.13-4.45-7.84-6.25l-.76-.04c-2.21-1.63-6.03-3.66-7.06-6.14l-.37-.29C-.39,6.81,1.5,3.6,3.33.19Z"/>
    <path class="cls-1" d="M18.05,21.77c.74.32,1.17.49,1.99.5,1.37,0,2.25.27,3.08,1.37l.26.41c.69,1.13,1.73,1.48,2,2.87l.08.32.05.2c1.95,2.21,5.05,3.87,7.48,5.57-.68-.12-1.05-.31-1.61-.69l-.9-.5c-.72-.37-1.3-.83-1.92-1.35l-.32-.07c-2.17-.75-8.96-6.46-10.2-8.62Z"/>
    <path class="cls-4" d="M2.41,11.16c4.49,1.55,8.52,5.57,12.31,8.42.89.67,2.29,2.02,3.34,2.19,1.24,2.16,8.02,7.88,10.2,8.62l.32.07-.67.29-4.02-2.82-.44.26-.05.55,3.98,3.99-.38.02c-1.46-.68-2.97-2.64-4.17-3.79-3.38-3.22-6.77-6.45-10.18-9.63-3.21-2.99-6.99-5.28-10.23-8.18Z"/>
    <path class="cls-1" d="M.44,11.16c.83-.29,1.14-.32,1.97,0,3.24,2.9,7.02,5.19,10.23,8.18,3.41,3.18,6.81,6.41,10.18,9.63,1.2,1.14,2.71,3.11,4.17,3.79l-.15.56-.24.11c-1.25-.24-2.98-2.48-3.85-3.37-1.41-1.45-2.98-2.67-4.42-4.07-.78-.76-1.41-1.66-2.23-2.38-2.44-2.15-5.13-4.45-7.84-6.25l-.76-.04c-2.21-1.63-6.03-3.66-7.06-6.14Z"/>
  </g>
</svg>