<?xml version="1.0" encoding="UTF-8"?>
<svg id="_Слой_2" data-name="Слой 2" xmlns="http://www.w3.org/2000/svg" xmlns:xlink="http://www.w3.org/1999/xlink" viewBox="0 0 49.17 65.8">
  <defs>
    <style>
      .cls-1 {
        fill: #e3a35b;
      }

      .cls-1, .cls-2, .cls-3, .cls-4, .cls-5, .cls-6, .cls-7 {
        stroke-width: 0px;
      }

      .cls-2 {
        fill: #fce497;
      }

      .cls-3 {
        fill: url(#_Безымянный_градиент_2);
      }

      .cls-4 {
        fill: #f8f6fa;
      }

      .cls-5 {
        fill: #f8c68a;
      }

      .cls-6 {
        fill: #f1b952;
      }

      .cls-7 {
        fill: #e49409;
      }
    </style>
    <linearGradient id="_Безымянный_градиент_2" data-name="Безымянный градиент 2" x1="46.98" y1="170.58" x2="34.41" y2="164.2" gradientTransform="translate(0 183.42) scale(1 -1)" gradientUnits="userSpaceOnUse">
      <stop offset="0" stop-color="#d29033"/>
      <stop offset="1" stop-color="#e5b553"/>
    </linearGradient>
  </defs>
  <g id="_Слой_1-2" data-name="Слой 1">
    <path class="cls-1" d="M27.05,55.85c1.03,1.12,2.37,2.56,2.36,4.18,0,1.41-1.32,3.03-2.34,3.9-2.01,1.71-3.83,2.04-6.42,1.8l-1.8-.2c.48-.3.59-.52.79-1.02l.06-.16c1.11-.15,2.28-.49,3.3-.96,3.35-1.56,2.94-4.46,3.96-7.3l.09-.23Z"/>
    <path class="cls-4" d="M3.85,22.42l-.71-.56C1.44,20.41.2,17.36.04,15.19c-.27-3.5.94-6.49,3.22-9.1C6.71,2.13,11.22.58,16.35.25l-.14.17c-1.02,1.09-2.63,1.6-3.97,2.2C6.2,5.34,2.55,8.63,2.58,15.62c0,2.24,2.04,4.73,1.27,6.8Z"/>
    <path class="cls-6" d="M18.85,65.53l-2.2-1.09c-1.28-.81-2.11-2.86-2.42-4.28-.27-1.23.04-2.93.77-3.96,1.12-1.59,3.13-2.47,5.01-2.76,2.82-.44,4.87.79,7.04,2.42l-.09.23c-1.02,2.84-.61,5.74-3.96,7.3-1.02.47-2.19.8-3.3.96l-.06.16c-.2.5-.32.72-.79,1.02Z"/>
    <path class="cls-3" d="M32.06,1.25c5.19.79,10.36,3.61,13.52,7.89,3.04,4.12,4.15,9.36,3.34,14.4-.7,4.36-2.67,7.88-6.16,10.62-.57-.03-.77-.12-1.22-.43.7-.56.83-1.36,1.25-2.12.85-1.5,1.89-3.11,2.84-4.54.22-.33.13-.76.13-1.16l-.73-.26.07-.33c.96-3.93,1.27-7.9-.71-11.6-1.12-2.09-2.68-4.44-4.42-6.04-.92-.85-2.09-1.42-3.05-2.22-1.13-.94-2.2-2.16-3.65-2.57l-.22-.05c-.42-.49-.7-1.02-1.01-1.59Z"/>
    <path class="cls-6" d="M16.35.25c4.55-.69,9.93.17,14.47.84l1.24.15c.31.56.6,1.09,1.01,1.59l.22.05c1.44.41,2.52,1.63,3.65,2.57.97.8,2.14,1.37,3.05,2.22,1.73,1.61,3.29,3.95,4.42,6.04,1.98,3.7,1.67,7.66.71,11.6l-.07.33.73.26c0,.4.09.83-.13,1.16-.96,1.43-1.99,3.04-2.84,4.54-.43.75-.55,1.56-1.25,2.12.45.31.65.4,1.22.43l-7.32,5.48c-1.84,1.29-3.22,2.52-4.41,4.46-.84,1.51-1.73,3.77-3.5,4.3-2.26.68-7.92.46-9.97-.64-.72-.39-1.36-.96-1.93-1.54-1.08-1.95-1.01-3.94-.85-6.08,1.74-5.56,7.12-8.25,10.54-12.61,1.42-1.81,2.39-4.3,3.28-6.4.25-2.05.11-2.9-1.21-4.55-1.01-1.27-2.52-2.33-4.18-2.45-1.72-.13-3.44.87-4.65,2-.69.65-1.27,1.33-1.59,2.24-.92,2.63-.55,7.32-4.43,7.15-2.71-.12-6.58-1.46-8.69-3.1.77-2.07-1.26-4.56-1.27-6.8-.03-6.99,3.63-10.28,9.67-13,1.33-.6,2.95-1.11,3.97-2.2l.14-.17Z"/>
    <path class="cls-2" d="M28.04,29.97c.33,1.18.09,1.43-.49,2.48-.68,1.22-1.35,2.62-2.67,3.11l-.63-.44c.04-1.31.87-2.49,1.56-3.56.72-1.11.96-1.31,2.24-1.6Z"/>
    <path class="cls-2" d="M31.56,4.14l.85.24.36.68c-.54,2.21-1.47,3.39-3.04,5.01l-.9-.62c-.55-.5-.72-1.06-.79-1.78.44-1.72,2.1-2.67,3.52-3.53Z"/>
    <path class="cls-7" d="M32.34,38.59l.25,1.06c-.96.67-1.67,1.54-2.43,2.42-2.66,2.63-5.04,4.88-9.08,4.83-1.16-.02-2.88-.14-3.83-.85,2.11.12,4.94.44,6.87-.51l.32-.16c1.73-.83,2.94-2.61,4.24-4,1.1-1.17,2.27-1.98,3.66-2.79Z"/>
    <path class="cls-1" d="M45.04,25.65l.73.26c0,.4.09.83-.13,1.16-.96,1.43-1.99,3.04-2.84,4.54-.43.75-.55,1.56-1.25,2.12.45.31.65.4,1.22.43l-7.32,5.48c-1.84,1.29-3.22,2.52-4.41,4.46,0-.61.07-1.02.33-1.59l.07-.15-.41-.38-.85.1c.76-.88,1.46-1.75,2.43-2.42l-.25-1.06c5.33-3.82,9.61-7.01,12.7-12.95Z"/>
    <path class="cls-5" d="M28.59,21.13l.88.54c.01.83,0,1.22-.33,1.95l-.07.24-.45.71c-.41.55-.55,1.08-1.04,1.61-.57.62-.66,1.36-.81,2.16.3,1,.39,1.02,1.26,1.62-1.28.28-1.52.48-2.24,1.6-.7,1.07-1.52,2.26-1.56,3.56-.63.7-1.62,1.46-1.73,2.39l-1.01,1.19c-.76.06-1.38.05-2.12-.14-.96-.18-1.18-.11-2.12.2-.66,1.32-1.16,2.51-1.63,3.91l-.49.16c-.52-.78-.35-1.77-.37-2.7,1.74-5.56,7.12-8.25,10.54-12.61,1.42-1.81,2.39-4.3,3.28-6.4Z"/>
  </g>
</svg>