<?xml version="1.0" encoding="UTF-8"?>
<svg id="_Слой_2" data-name="Слой 2" xmlns="http://www.w3.org/2000/svg" xmlns:xlink="http://www.w3.org/1999/xlink" viewBox="0 0 139.15 99">
  <defs>
    <style>
      .cls-1 {
        fill: #9c9eab;
      }

      .cls-1, .cls-2, .cls-3, .cls-4, .cls-5, .cls-6, .cls-7, .cls-8, .cls-9, .cls-10, .cls-11, .cls-12 {
        stroke-width: 0px;
      }

      .cls-2 {
        fill: #3c3a3c;
      }

      .cls-3 {
        fill: #880861;
      }

      .cls-5 {
        fill: #babbc3;
      }

      .cls-6 {
        fill: #737579;
      }

      .cls-7 {
        fill: #5c3087;
      }

      .cls-8 {
        fill: #4f4c4e;
      }

      .cls-9 {
        fill: url(#_Безымянный_градиент_10);
      }

      .cls-10 {
        fill: #1b1c21;
      }

      .cls-11 {
        fill: #2b3138;
      }

      .cls-12 {
        fill: #fbfafa;
      }
    </style>
    <linearGradient id="_Безымянный_градиент_10" data-name="Безымянный градиент 10" x1="41.07" y1="96.63" x2="47.71" y2="62.89" gradientTransform="translate(0 134.65) scale(1 -1)" gradientUnits="userSpaceOnUse">
      <stop offset="0" stop-color="#c1c2c8"/>
      <stop offset="1" stop-color="#f1eff3"/>
    </linearGradient>
  </defs>
  <g id="_Слой_1-2" data-name="Слой 1">
    <path class="cls-10" d="M126.24.06c.84-.07,1.62-.11,2.44.08,2.94.69,7.91,3.1,9.4,5.85,1.24,2.29,1.37,5.86.56,8.31-.53,1.6-1.7,2.75-2.99,3.78-1.95,1.55-4.3,2.73-6.4,4.08-5.18,3.32-10.42,6.55-15.64,9.81-6.27,3.92-12.35,8.62-19.01,11.86.85,1.97,2.29,3.54,3.19,5.46,2,4.26.77,8.27-.69,12.4l.86,2.13c1.39,3.74,1.79,9.81.02,13.43-2.11,4.34-8.81,5.75-12.98,7.26l-3.14,4.17c-2.18,2.51-6.02,5.65-9.06,7.05-4.53,2.08-10.7,2.69-15.65,3.06-7.64.58-15.74.11-22.82-3.12-3.88-1.77-7.69-4.61-10.92-7.39-4.62-.57-9.38.06-13.98-.64-2.59-.39-4.79-1.28-7.18-2.32l-1.92-7.46c-.46-2.79-.55-6.07.2-8.82,1.38-5.05,5.99-7.45,10.25-9.8l-.94-1.93c-1.02-2.63-.8-5.83.41-8.36,4.01-8.42,14.13-10.63,22.05-13.51l2.64,1.69c1.65.88,4.3,2.44,6.18,1.81,3.15-1.05,4.04-3.48,5.43-6.21,2.7-.31,5.19-.52,7.83-1.2-.93-2.66-2.06-5.15-2.21-8-.36-6.85,4.69-12.7,9.12-17.45.64-.69,1.28-1.05,2.23-1.09.62.22,1.19.51,1.66.97,5.73,5.71,12.96,12.62,10.56,21.59-.47,1.77-2.45,3.88-2.43,5.56,1.48,1.21,4.3,1.87,6.13,2.61,4.17-4.66,9.07-7.61,14.01-11.32,7.08-5.32,14.12-10.66,21.34-15.81,3.91-2.79,7.29-6.02,11.44-8.54Z"/>
    <path class="cls-6" d="M14.06,83.36c1.19-.04,2.35.04,3.52.21,1.73.26,2.38.77,3.4,2.13-1.67-.06-5.46.23-6.75-.6l-.18-1.75Z"/>
    <path class="cls-5" d="M27.41,40.13c1.27-.52,3.33-1.52,4.67-1.56.95-.03,1.75,1.18,2.39,1.82-1.65.91-3.92,1.09-5.76,1.48l-1.29-1.75Z"/>
    <path class="cls-6" d="M93.13,65.59l.77.32c1.18,1.7.64,5.5.5,7.51-1.44,2.17-3.64,3.68-5.78,5.09l-.31-.46c1.18-1.88,3.19-2.88,4.39-4.69,1.6-2.41-.32-4.95.35-7.48l.08-.29Z"/>
    <path class="cls-4" d="M55.36,90.64l.25-.58c.47-.94.92-1.62,1.9-1.98l.44.56-.47,1.24-.62.55c.85.49,2.05.35,3.01.37-.95.34-1.75.29-2.74.24.71.39,1.84.21,2.66.21-.31.44-1.29.59-1.82.76l-9.67.3-1.87-.89.13-.93,8.79.15Z"/>
    <path class="cls-5" d="M29.92,89.29c2.6.5,5.04,1.49,7.62,2.05,2.96.64,6.11.81,9.12,1.27.73.71,2.02,1.65,2.16,2.62-6.57-.78-13.15-2.65-18.9-5.95Z"/>
    <path class="cls-12" d="M4.46,81.17l-1.29-2.79c-1.04-2.68-1.42-5.97-.17-8.63,1.71-3.66,4.29-6.17,8.1-7.54.94-.34,1.01-.3,1.91.12-.86,1.56-3.58,1.81-5.07,3.16-1.14,1.04-1.88,2.63-2.56,4-1.08,2.16-1.1,5.41-.52,7.75.18.71.68,1.76.72,2.44.03.61-.69,1.17-1.11,1.49Z"/>
    <path class="cls-8" d="M86.2,46.72c1.8,2.03,3.89,4.36,4.07,7.18l.23,1.55-1.43,1.97-.35-.54c-1.53-3.12-4.07-4.08-6.93-5.75,1.44-1.66,2.61-3.12,4.41-4.41Z"/>
    <path class="cls-5" d="M86.2,46.72c.99-.84,1.26-1.37,2.58-1.37l4.64,3.69c1.14,3.05,1.6,5.9.44,9.05l-1.76-.27c-.27-1.21-.68-1.61-1.6-2.37l-.23-1.55c-.18-2.81-2.27-5.15-4.07-7.18Z"/>
    <path class="cls-6" d="M13,62.33l1.28,1.07.04.49c-4.09,2.18-7.38,2.91-8.85,7.89-.4,1.35-.76,2.75-.06,4.05l.1.17c.52.94.33,1.97.7,2.87.65,1.57,3.4,2.5,4.8,3.19.13.07.91.38.97.47.4.61.14,1.85.05,2.53-1.17.65-3.56.04-4.87-.33l-1.78-.63-.93-2.93c.43-.32,1.14-.87,1.11-1.49-.04-.69-.54-1.73-.72-2.44-.58-2.34-.56-5.59.52-7.75.68-1.37,1.43-2.96,2.56-4,1.48-1.35,4.21-1.6,5.07-3.16Z"/>
    <path class="cls-2" d="M13.42,68.74c.18.13.4.21.53.39.48.66.81,3.5,1.07,4.43.66,2.39,1.48,4.66,2.42,6.95l-4.12-.48c-1.79-.51-2.8-1.27-3.73-2.91-.65-1.15-1.15-3.46-.67-4.72.68-1.75,2.93-2.85,4.51-3.66Z"/>
    <path class="cls-8" d="M75.7,89.07c-6.39,5.65-17.8,6.85-26.1,6.34l-.79-.17c-.14-.98-1.44-1.91-2.16-2.62l1.65-.3,9.67-.3c6.16-.11,11.99-.52,17.73-2.94Z"/>
    <path class="cls-11" d="M81.88,43.7c1.57-1.01,2.23-2.34,3.54-3.53.9-.81,3.06-.17,4.18-.02l-1.95.35c-4.03,5.9-9.61,10.56-14.74,15.48-1.38,1.33-4.48,4.9-6.36,5.26l-2.7.03,9.25-8.8,8.78-8.77Z"/>
    <path class="cls-1" d="M90.5,55.45c.93.76,1.33,1.16,1.6,2.37l1.76.27c-4.62,6.54-12.11,8.79-19.67,10.1l-7.27.72c3.49-1.72,7.29-2.61,10.99-3.82-.25-.46-.57-.73-.96-1.07,4.31-1.02,9.39-2.84,12.11-6.6l1.43-1.97Z"/>
    <path class="cls-5" d="M90.5,55.45c.93.76,1.33,1.16,1.6,2.37-3.91,3.73-8.53,6.99-14.18,7.28-.25-.46-.57-.73-.96-1.07,4.31-1.02,9.39-2.84,12.11-6.6l1.43-1.97Z"/>
    <path class="cls-12" d="M48.21,36.34c9.87.32,19.18,0,28.92,2.23-.83,1.09-1.61,2.07-2.69,2.92-7.82-2.22-16.77-3.24-24.9-2.89-1.79,2.59-3.49,3.81-6.68,4.38-1.57.28-3.13.14-4.63-.38l.18-.62c1.51.2,3.3.17,4.75-.32,2.37-.82,4.01-3.17,5.06-5.32Z"/>
    <path class="cls-11" d="M80.15,71.25l7.99-1.97c-1.85,5.36-5.26,13.89-10.59,16.53-1.78.88-4.3,1.69-6.29,1.64,3.97-5.05,6.49-10.29,8.89-16.2Z"/>
    <path class="cls-6" d="M116.81,20.28c.53-2.03,1.25-5.39.35-7.34l-.16-.34c.61-1.56,3.44-2.85,4.86-3.84,2.11-1.47,4.22-3.04,6.23-4.65l.5.18c2.99.91,4.35,2.29,5.94,4.93-1.07,1.45-4.25,2.28-5.87,3.24-2.27,1.35-4.36,2.91-6.42,4.56-1.42,1.14-3.42,3.02-5.26,3.25h-.16Z"/>
    <path class="cls-6" d="M80.15,71.25c-2.4,5.91-4.92,11.15-8.89,16.2-2.65,1.47-5.21,1.81-8.15,2.31,4.26-5.39,5.04-9.67,4.99-16.45l12.05-2.06Z"/>
    <path class="cls-12" d="M109.31,18.12l.39.83c-.52,1.03-2.23,1.87-3.16,2.58-4.99,3.81-10.21,7.29-15.17,11.12-1.54,1.19-2.9,2.62-4.38,3.88-1.16.98-2.47,1.67-3.38,2.92l.52.04-2.26,4.23-8.78,8.77-9.25,8.8-2.73.36c-.81.01-1.57.02-2.37-.1.4-1.39,3.97-4.13,5.15-5.24,3.61-3.69,7.54-7.1,11.18-10.78,3.5-3.53,6.88-7.65,10.67-10.82,4.39-3.66,9.52-6.68,14.2-9.99,3.11-2.19,6.06-4.72,9.37-6.59Z"/>
    <path class="cls-6" d="M70.26,52.6l2.84-.12-9.25,8.8-2.73.36,5.34-5.48c1.18-1.34,2.41-2.44,3.8-3.55Z"/>
    <path class="cls-6" d="M83.62,39.44l.52.04-2.26,4.23-8.78,8.77-2.84.12c1.21-.91,2.04-2.23,3.13-3.27,3.43-3.28,6.83-6.58,10.23-9.89Z"/>
    <path class="cls-12" d="M62.5,8.75l.71-.3c1.61,1.37,2.58,3.03,3.9,4.64,2.41,2.93,5.24,5.24,5.56,9.31.19,2.45.09,4.86-1.64,6.79-1.47,1.65-3.99,2.79-6.19,2.9-2.24.1-5.46-.83-7.1-2.39-2.02-1.91-2.44-4.66-2.44-7.31,0-1.47.1-3.25.68-4.6,1.16-2.68,4.05-5.12,5.74-7.62l.78-1.41Z"/>
    <path class="cls-7" d="M66.33,16.01c1.63,2.74,4.11,6.08,3.24,9.45-.39,1.51-2.19,3.51-3.54,4.23-1.26.67-2.68.37-4.01.1,0-.3-.11-.91-.04-1.18.12-.41,1.04-1.38,1.34-1.82.8-1.15,1.58-2.58,2.06-3.9.77-2.14.14-4.62.95-6.89Z"/>
    <path class="cls-3" d="M61.72,10.16l.78-1.41c.73,2.23,1.85,4.38,3.27,6.25l.56,1.02c-.81,2.28-.18,4.76-.95,6.89-.48,1.32-1.26,2.74-2.06,3.9-.3.44-1.22,1.4-1.34,1.82-.08.27.03.88.04,1.18-2.28-1.56-3.6-2.85-4.66-5.42l.17-3.65,3.24,1.21c1.09-.52,1.65-1.49,2.31-2.45-.81-1.48-1.33-3.38-2.07-4.95.61-1.43.94-2.84.7-4.38Z"/>
    <path class="cls-9" d="M66.93,68.91c-12.19,1.31-26.58,1.96-38.27-2.15-4.66-1.64-8.85-3.38-12.42-6.87-.97-.95-2.04-1.91-2.63-3.16l-.09-.21-.44-1c-.66-1.74-.62-3.68.15-5.36.6-1.32,1.74-2.37,2.77-3.37,3.59-3.48,6.72-4.95,11.4-6.66l1.29,1.75c-3.45,1.17-5.79,2.68-8.74,4.78-.77.55-1.9,1.1-2.33,1.93-.83,1.61-.58,4.21.02,5.88.37,1.04,1.18,1.9,1.88,2.73,6.12,5.26,13.41,6.66,21.17,7.71,8.41,1.13,17.02,1.29,25.49.67l10.79-1.55c.39.34.71.6.96,1.07-3.7,1.21-7.49,2.09-10.99,3.82Z"/>
    <path class="cls-8" d="M134.53,9.21c.44,1.24.46,2.64-.04,3.88-.47,1.17-2.82,2.53-3.84,3.28-7.83,5.77-16.38,10.42-24.6,15.56-4.01,2.51-8.66,6.54-13.21,7.93-1,.3-2.21.27-3.25.29-1.12-.15-3.28-.79-4.18.02-1.31,1.18-1.97,2.52-3.54,3.53l2.26-4.23-.52-.04c.91-1.25,2.22-1.94,3.38-2.92,1.49-1.26,2.84-2.69,4.38-3.88,4.96-3.83,10.18-7.3,15.17-11.12.93-.71,2.65-1.55,3.16-2.58l-.39-.83.18-.33,1.15-1.12c1.54-1.23,3.11-2.14,4.86-3.04l.49.11c.41.77,0,2.21,0,3.12l.02,3.21.34.28.47-.09h.16c1.84-.24,3.85-2.12,5.26-3.26,2.06-1.65,4.15-3.21,6.42-4.56,1.62-.96,4.81-1.79,5.87-3.24Z"/>
    <path class="cls-11" d="M109.49,17.79l1.15-1.12c.87,1.31,1.09,2.33,1.24,3.88-.11,1.66.29,2.72-.94,3.93l-.45-.33-.29-4.6c-.1-.87-.19-1.05-.71-1.76Z"/>
    <path class="cls-6" d="M110.64,16.67c1.54-1.23,3.11-2.14,4.86-3.04l.49.11c.41.77,0,2.21,0,3.12-.31,1.6-.39,3.1-.41,4.72l-3.31,2c-.08-.88-.06-2.23-.39-3.04-.16-1.55-.37-2.57-1.24-3.88Z"/>
    <path class="cls-6" d="M109.49,17.79c.51.71.6.89.71,1.76l-.11,5.04c-1.89,1.67-3.72,3.53-5.71,5.06-1.4,1.08-3.12,1.83-4.65,2.72-2.09,1.21-4.12,2.61-6.3,3.64-2.62,1.24-7.32,1.49-9.28,3.46l-.52-.04c.91-1.25,2.22-1.94,3.38-2.92,1.49-1.26,2.84-2.69,4.38-3.88,4.96-3.83,10.18-7.3,15.17-11.12.93-.71,2.65-1.55,3.16-2.58l-.39-.83.18-.33Z"/>
    <path class="cls-8" d="M49.52,38.59c8.13-.35,17.09.67,24.9,2.89-1.85,1.92-3.63,4.16-5.79,5.71-3.86-1.11-7.99-1.26-11.98-1.25-10.79.01-23.51,1.79-33.02,7.17-1.83,1.04-3.08,2.26-4.1,4.09-.7-.83-1.51-1.7-1.88-2.73-.6-1.67-.85-4.26-.02-5.88.43-.83,1.56-1.38,2.33-1.93,2.95-2.1,5.29-3.61,8.74-4.78,1.84-.39,4.12-.58,5.76-1.48,1.29.79,2.73.84,3.94,1.58l-.18.62c1.49.52,3.06.66,4.63.38,3.19-.57,4.88-1.79,6.68-4.38Z"/>
    <path class="cls-6" d="M17.9,66.34l4.53,2.55,8.69,2.8c4.16.52,8.25,1.4,12.43,1.83,7.56.77,15.26.57,22.84.16.13,6.77-1.76,10.77-5.63,16.16-.93.58-1.93.47-2.98.44l-.3-.4.47-1.24-.44-.56c-.99.36-1.43,1.04-1.9,1.98l-.25.58-8.79-.15c-1.26-.45-3.32-.27-4.69-.32,1.64-1,3.48-2.24,4.79-3.65l-.1-.78c-1.75-.32-3.19,1.72-5.02,1.8-1.19.05-1.7-.27-2.58-1.02l-.55.12c-.13.51-.19.98-.23,1.51-1.64.51-3.71-.34-5.24-.91l-2.83-1c-1.37.02-2.76-.23-3.86-1.09-2.15-1.68-3.33-4.22-4.44-6.64-1.83-4.02-3.32-7.79-3.92-12.18Z"/>
    <path class="cls-10" d="M44.45,74.62l.43.13.28.71c-.54,1.16-2.01,2.16-3.16,2.71-1.53.73-2.77.41-4.29-.12-.28-.31-.57-.62-.71-1.01-.23-.64-.08-.78.19-1.37l.78-.18c.57.42,1.14.71,1.79,1,1.69.09,3.26-1.05,4.69-1.85Z"/>
    <path class="cls-4" d="M44.39,81.16l.37.02.28.46-.37,1.14c-.55.53-1.11,1.05-1.81,1.39-2.33,1.13-4.49.28-6.79-.49l-.55-1.55.39-.51c1.55.65,3.15,1.06,4.78,1.48,1.3-.53,2.5-1.24,3.71-1.95Z"/>
    <path class="cls-12" d="M30.12,86.25c-.9-.88-1.38-1.92-1.4-3.2l.12-1.19c.87-.43,1.89-.31,2.83.02.93.32,1.5.81,1.9,1.72.43.97.38,2.22.35,3.26-.35.25-.53.38-.97.39l-2.83-1Z"/>
    <path class="cls-12" d="M22.43,68.89l8.69,2.8c-.2,1.17-.34,2.58-.87,3.66-.53,1.09-1.12,1.41-2.23,1.79-2.21-.16-3.71-1.66-5.16-3.2-.37-1.5-1.02-3.65-.44-5.05Z"/>
  </g>
</svg>