<?xml version="1.0" encoding="UTF-8"?>
<svg id="_Слой_2" data-name="Слой 2" xmlns="http://www.w3.org/2000/svg" viewBox="0 0 61.37 93.86">
  <defs>
    <style>
      .cls-1 {
        fill: #9c9eab;
      }

      .cls-1, .cls-2, .cls-3, .cls-4, .cls-5, .cls-6, .cls-7, .cls-8, .cls-9, .cls-10, .cls-11, .cls-12, .cls-13, .cls-14, .cls-15, .cls-16, .cls-17, .cls-18, .cls-19 {
        stroke-width: 0px;
      }

      .cls-2 {
        fill: #abbbe9;
      }

      .cls-3 {
        fill: #3c3a3c;
      }

      .cls-4 {
        fill: #880861;
      }

      .cls-5 {
        fill: #e1dcf8;
      }

      .cls-7 {
        fill: #d0535f;
      }

      .cls-8 {
        fill: #babbc3;
      }

      .cls-9 {
        fill: #d281b6;
      }

      .cls-10 {
        fill: #c26995;
      }

      .cls-11 {
        fill: #db7551;
      }

      .cls-12 {
        fill: #ce9a6b;
      }

      .cls-13 {
        fill: #c55392;
      }

      .cls-14 {
        fill: #f1c0a2;
      }

      .cls-15 {
        fill: #53687f;
      }

      .cls-16 {
        fill: #e5ae72;
      }

      .cls-17 {
        fill: #fbfafa;
      }

      .cls-18 {
        fill: #cca5ed;
      }

      .cls-19 {
        fill: #c88342;
      }
    </style>
  </defs>
  <g id="_Слой_1-2" data-name="Слой 1">
    <path class="cls-3" d="M9.9,44.88l.8.11c1.15-1.83,2.75-3.05,4.39-4.41.07,1.66-1.29,3.47-2.39,4.65-.49.53-.96.83-1.68.97-.71-.44-.77-.55-1.13-1.31Z"/>
    <path class="cls-8" d="M51.26,36.87c.51.17,1.01.31,1.4.69,1,.99,2.29,2.31,3.73,2.49l-.4.78c-.6,1.04-2.46,3.35-3.59,3.68l-.72.08-3.64-3.26.05-.47c-.02-2.02,1.91-2.22,3.04-3.79l.14-.2Z"/>
    <path class="cls-8" d="M6.59,39.97c2.21-.59,2.48-3.21,4.44-4.03.53,2.13,2.72,3.05,4.06,4.63-1.64,1.36-3.24,2.58-4.39,4.41l-.8-.11c-1.18-.64-2.72-3.7-3.31-4.91Z"/>
    <path class="cls-6" d="M25.24,0c1.09.63,3.06.26,4.32.24,2.93-.04,6.33-.19,9.21.31,3.45.6,4.9,2.57,6.74,5.17l.09.12c-.31,2.71-1,5.25-1.53,7.91-.23,1.15-.63,2.49-.49,3.66,2.81-.7,3.22,1.11,5.22,2.1.4,2.84.66,5.89.09,8.72-.27,1.3-1.31,2.96-2.47,3.64-1.17.69-2.52,1.07-3.85.72.45,2.75,1.64,5.42,1.95,8.19.2,1.78-.11,3.77-.25,5.56.8,1.7,2.35,3.11,3.66,4.42,5.15,5.16,10.48,8.89,12.62,16.26,1.36,4.69,1.07,9.88-1.33,14.18-2.64,4.72-8.55,9.56-13.88,11.04-1.86.51-5.93,1.56-7.6.63l-1.01.56c-1.03.4-2.6.36-3.71.41-5.85.24-11.97-1.05-17.36-3.33-6.24-2.63-12.03-5.71-14.7-12.41-1.11-2.79-1.17-5.47-.65-8.41.96-5.43,4.51-10.03,8.78-13.34,3-2.33,6.3-4.21,7.8-7.96l.11-.27c.45-2.47-.13-5.31.02-7.83.13-2.17.99-4.61,1.35-6.8l-.65-.08c-1.21-.38-3.89-2.57-4.37-3.76-.75-1.87-.9-7.77-.12-9.64.84-2.01,2.13-2.21,3.82-3.15.63-.35.43-.91.35-1.49-.34-2.62-1.85-6.48-1.22-9.02.61-2.41,2.83-4.43,5.19-5.09,1.27-.36,2.55-.39,3.69-1.13l.17-.12Z"/>
    <path class="cls-16" d="M20.68,4.81h.17c1.43-.07,2.79-.63,4.21-.8,3.13-.38,6.8-.29,9.95-.07,2.02.14,3.88,1.06,5.8,1.21l-.47.89-.34.07c-1.09.24-2.72.42-3.68.82-.58.24-1.28-.07-1.83.07-2.53.66-5.76.32-8.47.32l-.77-.31c-1.2.06-1.55-.38-2.61-.67l-1.82-.33-.12-1.2Z"/>
    <path class="cls-15" d="M46.35,23.35l-.03,4.4c-3.27,3.18-11.57,3.45-15.9,3.4-1.83-.02-4.81.26-6.22-.93.49.15.98.22,1.49.3l2.4-3.48c.46.2.88.31,1.38.29,3.21-.15,14.75-1.64,16.88-3.97Z"/>
    <path class="cls-12" d="M22.33,19.97c-.56-.92-.79-2.4-1.1-3.47-.8-2.8-2.23-6.42-2.15-9.35.03-1.12.86-1.61,1.6-2.34l.12,1.2,1.82.33.46,1.29c.89.18,4.29.5,4.74.8.72.48,1.68.48,2.52.51.75,2.18-.46,5.73-.93,7.9-.23,1.08-.45,2.69-.9,3.67l-.14.23-.17.08-.29.11-.61.2c-1.45.22-3.77-.43-4.98-1.18Z"/>
    <path class="cls-8" d="M15.51,21.2l.52.4c6.81,3.18,15.8,3.71,23.04,2.02,2.24-.52,4.44-1.49,6.65-2.15l.55.36.08,1.52c-2.13,2.32-13.67,3.81-16.88,3.97-.5.02-.92-.09-1.38-.29l-2.4,3.48c-.5-.08-1-.15-1.49-.3-.35.2-.71.37-1.12.36-1.69-.03-3.66-.46-4.84-1.61l-.6.12c-.52-.19-1.05-.37-1.45-.75-1.35-1.3-.72-5.33-.67-7.13Z"/>
    <path class="cls-1" d="M18.24,28.96c.69-1.05,1-2.42,1.37-3.62,2.45,1.16,5.79,1.37,8.48,1.68l-2.4,3.48c-.5-.08-1-.15-1.49-.3-.35.2-.71.37-1.12.36-1.69-.03-3.66-.46-4.84-1.61Z"/>
    <path class="cls-19" d="M40.81,5.14l1.26,1.19c-.32,3.42-1.3,7.01-2.19,10.33-.28,1.04-.51,2.57-1.08,3.46-1.96,1.49-6.92,1.18-9.38,1.22l-1.06-.61.14-.23c.45-.98.67-2.59.9-3.67.47-2.17,1.68-5.72.93-7.9-.84-.03-1.8-.02-2.52-.51-.46-.3-3.86-.62-4.74-.8l-.46-1.29c1.06.29,1.42.73,2.61.67l.77.31c2.72,0,5.95.34,8.47-.32.55-.14,1.26.17,1.83-.07.96-.39,2.59-.58,3.68-.82l.34-.07.47-.89Z"/>
    <path class="cls-17" d="M20.77,48.02l-.53-4.58c-.27-2.73-.04-7.61,1.76-9.82.96.07,1.86.06,2.82-.02l-.02.73c-.54,3.69-1.22,7.46-.89,11.2l.22.29c.18,2.56.13,4.65-1.64,6.72-.29.34-.49.56-.89.77-.78,1.01-3.02,4.26-4.16,4.66-.75,1.03-2.47,2.63-3.66,3.12-3.4,3.72-7.26,6.89-7.02,12.53.11,2.59,1.37,5.58,3.3,7.32.83.75,1.86,1.74,3.01,1.75.51.95,1.67,1.76,2.68,2.12l.67.04-1.48,1.42-.47-.11-.83.12c-3.44-1.76-7.31-4.32-9.12-7.85-1.03-2.01-1.21-3.98-1.18-6.2.12-7.97,6.73-12.25,12.05-16.99,2.22-1.98,4.37-3.98,5.28-6.91l.1-.33Z"/>
    <path class="cls-2" d="M36.6,33.74l2.24.28c2.47,4.24,2.18,8.69,1.72,13.37l.13.29c1.07,2.33,3.24,3.97,5.09,5.69,6.69,6.21,15.37,13.8,11.81,24.15-1.49,4.31-5.94,8.33-9.99,10.21-5.49,2.56-13.9,3.88-19.85,3-4.27-.63-8.42-2.25-12.5-3.62l-.8-.93.47.11,1.48-1.42c.76.62,1.68.93,2.59,1.28,7.37,2.79,18.8,3.01,26.07-.36,4.39-2.04,7.95-5.13,9.59-9.79.84-2.4.56-4.67-.17-7.04-2.01-6.49-7.21-10.78-12.21-15.07-1.56-1.34-3.7-2.98-4.56-4.89l-.11-.25c-.1-1.61.1-3.23.24-4.84.83-2.79-.82-7.24-1.24-10.17Z"/>
    <path class="cls-4" d="M24.82,33.61c1.89,1.23,8.7,1.02,11.02.44.27-.07.52-.19.77-.32.42,2.93,2.07,7.38,1.24,10.17-.14,1.61-.34,3.23-.24,4.84l.11.25c.86,1.9,3,3.54,4.56,4.89,4.99,4.29,10.2,8.59,12.21,15.07.73,2.37,1.01,4.64.17,7.04-1.64,4.66-5.2,7.76-9.59,9.79-7.27,3.37-18.7,3.15-26.07.36-.91-.35-1.82-.66-2.59-1.28l-.67-.04c-1.01-.36-2.17-1.17-2.68-2.12-1.15-.01-2.17-1-3.01-1.75-1.94-1.74-3.19-4.73-3.3-7.32-.24-5.64,3.62-8.82,7.02-12.53,1.19-.49,2.91-2.09,3.66-3.12,1.14-.4,3.38-3.65,4.16-4.66.4-.2.6-.43.89-.77,1.77-2.08,1.83-4.16,1.64-6.72l-.22-.29c-.33-3.74.35-7.51.89-11.2l.02-.73Z"/>
    <path class="cls-7" d="M37.27,70.09c1.48.27,2.02.24,3.14,1.28.19,1.09.23,1.23-.23,2.22l-.81.26-.82.64c-1.22-.32-1.38-.47-2.16-1.39-.15-1.56.02-1.71.88-3.01Z"/>
    <path class="cls-13" d="M24.13,45.82c-.03-.61-.06-.7.25-1.22,1.98.3,4.07.92,6.07.58l.29.05c-.59,2.44-1,5.82-3.15,7.46.64.6,1.67.98,2.56.97l.59-.08-.3,1.9c-.22.35-.73.96-.85,1.33-.12.36.1.94,0,1.31-.09.3-.77.98-.97,1.3l.79-.02.18.18c-.1.48-.2.75-.49,1.14-.37,0-.62-.04-.98-.16l-.17-1.26-.02.34c-.03.45-.18.78-.35,1.19.12-2.18-1.65-4.06-2.67-5.86-.91.3-2.22-.22-3.14-.43l-.18-1.23c.4-.2.6-.43.89-.77,1.77-2.08,1.83-4.16,1.64-6.72Z"/>
    <path class="cls-7" d="M30.75,53.58c4.4,1.74,10.38,2.77,12.58,7.7.39.88.23,1.46.12,2.37-1.74,2.17-3.42,2.7-5.95,3.63l-1.19-.19.05-.17c.58-2.1.32-4.21-.7-6.05-1.3-2.07-3.05-3.69-4.9-5.25l-.3-.14.3-1.9Z"/>
    <path class="cls-16" d="M30.45,55.48l.3.14c1.86,1.56,3.6,3.18,4.9,5.25,1.02,1.85,1.28,3.95.7,6.05l-.05.17c-.7,1.17-2.57,2.55-3.91,2.84-1.08.23-1.97.14-2.96-.36l-.63-.29-1.32.14c-.4-.25-.81-.51-1.14-.84-.85-.84-1.03-1.69-1.05-2.84l-.74-1.03c1.17-.42,2.06-1.93,2.6-2.99l.43-.9c.18-.41.32-.74.35-1.19l.02-.34.17,1.26c.35.12.6.17.98.16.3-.39.39-.66.49-1.14l-.18-.18-.79.02c.2-.32.89-1,.97-1.3.11-.36-.11-.95,0-1.31.12-.37.63-.98.85-1.33Z"/>
    <path class="cls-7" d="M30.45,55.48l.3.14c-.72,2.38.05,4.1-1.43,6.41l-.53.13c-.55,1.47-1.85,2.45-2.99,3.47l-.51.11-.74-1.03c1.17-.42,2.06-1.93,2.6-2.99l.43-.9c.18-.41.32-.74.35-1.19l.02-.34.17,1.26c.35.12.6.17.98.16.3-.39.39-.66.49-1.14l-.18-.18-.79.02c.2-.32.89-1,.97-1.3.11-.36-.11-.95,0-1.31.12-.37.63-.98.85-1.33Z"/>
    <path class="cls-11" d="M35.65,60.88c1.02,1.85,1.28,3.95.7,6.05l-.05.17c-.7,1.17-2.57,2.55-3.91,2.84-1.08.23-1.97.14-2.96-.36l-.63-.29.38-.07c2.76-1.3,5.63-5.57,6.48-8.34Z"/>
    <path class="cls-17" d="M17.44,57.97c1.14-.4,3.38-3.65,4.16-4.66l.18,1.23c.92.22,2.23.73,3.14.43,1.02,1.79,2.79,3.68,2.67,5.86l-.43.9c-.54,1.06-1.44,2.56-2.6,2.99-.73.63-1.15.83-2.12.89l-1.07-.45c-.36.52-1.04,1.19-1.65,1.44-.96.4-1.66.24-2.58-.16-1.38-.61-1.88-1.4-2.36-2.73-.38-.76-.31-.83-.12-1.67l-.88-.93c1.19-.49,2.91-2.09,3.66-3.12Z"/>
    <path class="cls-10" d="M17.44,57.97l1.1.43.1.46c-1.01,1.84-2.82,2.9-3.86,4.83-.38-.76-.31-.83-.12-1.67l-.88-.93c1.19-.49,2.91-2.09,3.66-3.12Z"/>
    <path class="cls-9" d="M17.44,57.97c1.14-.4,3.38-3.65,4.16-4.66l.18,1.23c.92.22,2.23.73,3.14.43,1.02,1.79,2.79,3.68,2.67,5.86l-.43.9c-.54,1.06-1.44,2.56-2.6,2.99-.73.63-1.15.83-2.12.89l-1.07-.45c.56-.28.95-.96,1.26-1.49.61-1.03,1.89-3.11,1.52-4.34-.21-.69-.67-1.25-1.33-1.55-1.92-.89-2.27.6-3.84,1.02l-.34.08-.1-.46-1.1-.43Z"/>
    <path class="cls-18" d="M24.82,33.61c1.89,1.23,8.7,1.02,11.02.44.27-.07.52-.19.77-.32.42,2.93,2.07,7.38,1.24,10.17-2.11.7-4.87,1.46-7.1,1.33l-.29-.05c-1.99.35-4.09-.28-6.07-.58-.31.52-.28.61-.25,1.22l-.22-.29c-.33-3.74.35-7.51.89-11.2l.02-.73Z"/>
    <path class="cls-5" d="M24.13,45.82l-.22-.29c-.33-3.74.35-7.51.89-11.2.06.83-.1,1.92.54,2.47,1.15,1,3.85,2.66,5.39,2.59h.11c0,1.62.33,4.33-.38,5.79-1.99.35-4.09-.28-6.07-.58-.31.52-.28.61-.25,1.22Z"/>
    <path class="cls-13" d="M13.07,82.7c-1.15-.01-2.17-1-3.01-1.75-1.94-1.74-3.19-4.73-3.3-7.32-.24-5.64,3.62-8.82,7.02-12.53l.88.93c-.19.84-.26.91.12,1.67.48,1.33.97,2.12,2.36,2.73.92.4,1.62.55,2.58.16.61-.25,1.29-.91,1.65-1.44l1.07.45c.96-.06,1.39-.26,2.12-.89l.74,1.03c.01,1.15.2,2,1.05,2.84.33.33.74.59,1.14.84l1.32-.14.63.29c-1.3.31-6.15,1.29-6.83,2.24-.09,1.44.05,2.11-.82,3.29-.85.26-1.5.5-2.39.23l-.67-.53c-3.05,1.82-4.74,4.46-5.65,7.88Z"/>
    <path class="cls-14" d="M18.72,74.82l-.67-.25-.16-.47c-.23-.8-.12-1.91.35-2.62.42-.63.67-.74,1.41-.83,1.21-.15,2.06.48,2.96,1.17-.09,1.44.05,2.11-.82,3.29-.85.26-1.5.5-2.39.23l-.67-.53Z"/>
  </g>
</svg>