<?xml version="1.0" encoding="UTF-8"?>
<svg id="_Слой_2" data-name="Слой 2" xmlns="http://www.w3.org/2000/svg" viewBox="0 0 58.9 86.77">
  <defs>
    <style>
      .cls-1 {
        fill: #ac2a0a;
      }

      .cls-1, .cls-2, .cls-3, .cls-4, .cls-5, .cls-6, .cls-7, .cls-8 {
        stroke-width: 0px;
      }

      .cls-2 {
        fill: #f7b932;
      }

      .cls-4 {
        fill: #fadf10;
      }

      .cls-5 {
        fill: #e25d1a;
      }

      .cls-6 {
        fill: #4f4c4e;
      }

      .cls-7 {
        fill: #fbfafa;
      }

      .cls-8 {
        fill: #c88342;
      }
    </style>
  </defs>
  <g id="_Слой_1-2" data-name="Слой 1">
    <path class="cls-3" d="M23.92,29.64c-4.73,2.46-11.97,3.19-17.14,1.64-2.83-.85-4.64-2.77-5.99-5.33-1.18-2.24-.89-5.52-.15-7.86,1.84-5.78,6.25-10.39,11.6-13.07C21.19.53,31.5-1.74,41.3,1.58c5.68,1.92,12.65,6.06,15.36,11.67,2.56,5.29,2.97,10.89.97,16.38-1.42,3.88-4.96,7.32-8.22,9.79l.24,3.12c-2.46,4.38-4.22,9.33-7.45,13.21,3.09,5.69,5.09,11.2,3.19,17.72l-.27.88c-1.32,4.41-5.16,8.67-9.17,10.79-2.39,1.26-5.61,2.14-8.28,1.31-3.03-.95-6.55-3.75-8-6.59-3.58-7-3.05-14.42-.62-21.64l.86-2.04c-2.39-2.84-3.74-5.62-3.42-9.43.24-2.81,1.53-6.67,3.38-8.88,2.21-2.65,4.65-4.13,5.51-7.63l-1.46-.59Z"/>
    <path class="cls-6" d="M23.92,29.64c.88-1.64,2.52-4.17,4.39-4.76.74-.23.97-.2,1.67.04-.16,1.54-3.17,4.2-4.42,5.19l-.19.12-1.46-.59Z"/>
    <path class="cls-7" d="M24.83,59.3c3.9.43,7.9.46,11.79,0,2.5,2.78,3.6,5.66,3.68,9.38.11,5.11-1.61,8.48-5.1,12.13-.26.21-.5.37-.79.54-1.98,1.13-4.75,1.32-6.92.64-2.03-.63-3.03-2.43-4.02-4.18-2.35-4.14-3.16-8.91-1.86-13.55.6-2.13,1.22-3.83,3.23-4.97Z"/>
    <path class="cls-1" d="M33.49,62.55c.41-.03,1.99-.26,2.23-.04,1.34,1.21,1.72,4.75,1.75,6.52.05,3.13-.7,6.57-2.98,8.88-1.1,1.12-2.77,1.92-4.35,1.93l-1.9-.16c.79-3.02,3.26-5.53,4.17-8.66.39-1.35.66-2.81.7-4.21.04-1.39-.21-2.96.38-4.24Z"/>
    <path class="cls-5" d="M25.27,60.96c2.18.14,4.72.04,6.7,1.05.44.23.86.36,1.34.49l.18.05c-.59,1.28-.34,2.86-.38,4.24-.04,1.4-.31,2.87-.7,4.21-.91,3.14-3.38,5.64-4.17,8.66-.96-.92-1.95-1.85-2.64-3-2.73-4.53-1.58-10.88-.33-15.71Z"/>
    <path class="cls-7" d="M26.38,5.63c3.81-.43,7.71-.22,11.31,1.15,5.24,1.99,11.69,6.95,13.98,12.17,1.49,3.39,2.03,6.37.59,9.88-1.55,3.78-5.82,5.92-9.43,7.46l2.24,5.83-.26.61c-1.58,3.65-3.82,8.93-7.78,10.42-3.49,1.31-9.02,1.25-12.4-.29-1.58-.72-3.46-2.47-4.01-4.16-.54-1.67.38-3.41,1.06-4.9.91-1.52,2.1-3.26,3.35-4.51,1.25-1.25,5.68-3.65,6.12-5.08l-.96-.81c-.08-.09-.3-.54-.27-.65.08-.25.97-1.05,1.18-1.28,1.36-1.46,5.36-4.75,5.59-6.7.04-.35-.54-1.15-.77-1.44-2.09-2.62-7.96-2.13-11.11-2.4l-3.03,5.65c-3.6.63-7.01.92-10.68.81-1.57-.05-3.21-.04-4.58-.92-1.09-.71-2-1.89-2.24-3.18-.47-2.58.85-5.28,2.3-7.32,4.12-5.81,12.92-9.14,19.78-10.31Z"/>
    <path class="cls-5" d="M36.92,34.19c1.88-.89,3.94-1.35,5.95-1.89l1.73.87c-1.44.72-2.99,1.34-4.04,2.61-.36,1.26.05,2.07.63,3.22l1.3,2.87c-1.31,3.38-2.1,7.14-5.72,8.73-2.93,1.29-7.54,1.61-10.52.37-1.28-.53-2.05-1.18-2.88-2.28-.32-1.11-.25-1.75,0-2.85,1.94.7,3.14,2.37,5.36,2.7,2.25.33,5.41.01,7.22-1.44,2.3-1.85,2.91-5.18,3.22-7.93-.39-2.17-.77-3.34-2.27-4.99Z"/>
    <path class="cls-2" d="M35.82,34.71l1.11-.52c1.5,1.65,1.88,2.82,2.27,4.99-.32,2.75-.92,6.08-3.22,7.93-1.81,1.45-4.97,1.77-7.22,1.44-2.21-.33-3.42-2-5.36-2.7,1.6-3.01,3.81-5.49,6.67-7.35,1.93-1.26,4.03-2.24,5.75-3.79Z"/>
    <path class="cls-4" d="M24.09,18.09c-1.09,2.06-2.55,4.48-4.62,5.67-1.98,1.14-7.88,1.46-10.06.81-1.21-.37-1.64-1.05-2.21-2.09.04-1.79.7-3.23,1.85-4.59,4.35-5.13,12.6-8.05,19.14-8.62,5.53-.48,11.26,1.38,15.48,4.98,3.93,3.35,6.6,7,7.02,12.25-.3,2.35-1.61,3.79-3.49,5.18-.79.58-1.71,1.11-2.61,1.49l-1.73-.87c-2.01.54-4.07,1-5.95,1.89l-1.11.52-1.85-2.24c.68-.94,1.33-1.93,2.1-2.8.96-1.07,3.47-3.04,3.54-4.44.05-.99-.46-2.19-1.14-2.89-3.84-3.95-9.27-4.1-14.38-4.26Z"/>
    <path class="cls-8" d="M50.7,26.5c-.3,2.35-1.61,3.79-3.49,5.18-.79.58-1.71,1.11-2.61,1.49l-1.73-.87c3.14-1.26,4.94-4.17,7.83-5.8Z"/>
  </g>
</svg>